<svg version="1" xmlns="http://www.w3.org/2000/svg" width="933.333" height="933.333" viewBox="0 0 700.000000 700.000000"><path d="M159 104.1c-30.5 3.3-55.9 19.9-70.2 45.9-4.2 7.6-6.6 15.3-12.4 39.3-3.1 12.8-8.6 35.1-12.1 49.7-3.5 14.6-6.6 27.6-6.9 28.9-.3 1.3-4.3 17.9-9 36.9-4.6 19.1-8.6 35.5-8.8 36.7-.2 1.1-1.1 4.9-2 8.5-.9 3.6-1.8 7.4-2.1 8.5-.2 1.1-2.2 9.4-4.5 18.5-8.2 33.3-8.5 35.7-5.3 41.2 4 6.9 8.3 7.8 37 8.3 10.4.2 19.1.3 19.4.4.4.1 1.2 2.9 1.8 6.3 2.8 14.9 10.4 34 18.4 46.5 8.4 13.1 17.3 22.8 30.2 32.7 23.8 18.5 46.7 26.6 76.5 27.1 16.4.3 27.1-1.1 41.5-5.4 10.1-3 28-12.2 37.1-19 27.9-21 44.7-47.1 51.9-80.8l1.8-8.2 9.6.2 9.6.2 1.7 8.5c2.3 10.8 5.1 19.5 9.9 29.6 3.8 8.2 10.2 19.3 13.6 23.5 5.7 7.1 12.5 14.2 21.8 22.4 4.8 4.3 18.4 13 26.5 16.9 7.8 3.8 20.7 8.3 26.9 9.2 2 .3 3.9.8 4.3 1.1 2.9 1.7 33.3 2.5 42.8 1.1 48.4-7.1 90-42.4 105.5-89.3 1.4-4.4 3.1-11.2 3.7-15 .7-3.9 1.3-7.2 1.5-7.4.2-.3 8.3-.6 18.1-.7 27.8-.4 29.4-.5 33.3-2.7 2-1 4.7-3.7 5.9-5.9 2.9-5.2 2.9-5.6-8-50.8-2.3-9.6-4.3-18.2-4.5-19-.2-.9-1.9-8.1-3.8-16-5-20.2-10.9-44.3-11.1-45.5-.2-.6-.6-2.1-.9-3.5-1.1-4.1-17.7-73.3-18.1-75.5-.3-1.1-1.6-6.9-3.1-12.9s-2.8-11.7-3-12.6c-.9-4.4-4.9-17.3-7.7-24.3-10.3-26.1-33.2-45.3-61.3-51.3-28.3-6.1-42-1.8-41.7 13.3.1 5.3 2.2 9.5 6.4 12.6 3.2 2.4 5.2 2.9 18.3 4.2 15.5 1.7 28 7.2 37.4 16.7 9.1 9.3 11.2 14.3 19.6 48.8 4.1 16.8 7.8 31.6 8.2 33 .3 1.4.7 2.9.9 3.5.3 1.7 5.2 21.6 11.1 45.5 3 12.4 5.9 24.3 6.3 26.5.5 2.2 2.5 10.5 4.5 18.5 1.9 7.9 3.7 15.4 3.9 16.5.2 1.1.9 4 1.6 6.5.7 2.5 1.4 5.4 1.6 6.5.2 1.1 1.8 7.6 3.5 14.5s3.3 13.6 3.6 15c1.2 5.7 1.6 5.5-9.4 5.4-5.6 0-10.5-.3-10.8-.6-.3-.3-1.9-5.7-3.4-11.9-3.1-12.5-7.3-23.8-12.2-32.6-19-34.4-50.5-57.6-89.4-65.9-10.4-2.2-34.4-2.6-44.5-.8-4.1.7-8.9 1.6-10.6 1.8-4.6.8-20.1 6.4-26.9 9.8-36.3 18.2-62.8 53-70.6 92.8-.8 3.6-1.7 6.8-2.1 7.1-.5.3-4.8.6-9.7.7l-8.8.1-1.8-8.2c-4.5-21.3-14.9-43.5-27-57.7-2.8-3.4-17-17.4-19.7-19.5-16.2-12.9-36.3-22-58.3-26.5-11.6-2.3-37.2-2.1-48.6.4-16.3 3.5-32.5 10.5-46.9 20.1-7.8 5.3-26.2 22.5-30.3 28.5-14.5 20.9-20.3 34.4-25.4 58.4l-.8 4-10.9.2-10.8.3.7-3.7c.6-3.5 4.9-21.3 13.1-55.2 2-8 3.7-15.2 3.9-16 .2-.8 1.7-7.4 3.5-14.5 5.4-22.1 10.1-41.9 10.5-43.5l2-8c.9-3.6 1.9-7.6 2.2-9 1.4-8.1 16.5-67.5 18.4-72.5 4.8-13 13.5-22.5 26.2-28.7 8.3-4 13.4-5.4 23.2-6.3 3.9-.3 8.3-.8 10-1.1 10.6-1.8 16.1-10.3 13.4-20.9-2.3-9.3-10.7-12.3-28.9-10.4zm61.5 209c15.5.5 37.4 9 50.6 19.6 14.3 11.4 26.1 27.2 31.4 41.8 8 22.3 9 41.6 3 61.6-5.2 17.4-11.7 28.6-24.4 42.2-3.6 3.8-13.8 12.2-17.6 14.4-9.3 5.4-24.3 11.4-32 12.8-28 4.8-53.2-.3-75.6-15.6-18.6-12.6-34.1-36-39.5-59.4-.4-1.7-.9-9.8-1.1-18.1-.4-13.3-.2-16.3 1.7-24 6.3-25.5 19.5-45 40-59.1 14.8-10.1 37.6-17.3 53-16.6 2.5.1 7.2.2 10.5.4zm281.5.3c8.3.8 16.8 3.1 25.4 6.9 6.4 2.8 16.3 8.3 17.6 9.7.3.3 3.1 2.4 6.2 4.8 9.7 7.4 16.8 15.8 23.3 27.7 11.4 20.8 14.9 42 10.9 65-1.7 9.8-2.7 13.1-7.1 22.5-11.2 24.2-32.8 44-57.2 52.5-9.2 3.2-11.5 3.5-29.1 4.1-13.2.3-16.8.1-24-1.6-4.7-1.1-9.2-2.3-10-2.7-.8-.3-1.7-.7-2-.8-16.8-5.7-36.4-21.1-46.6-36.5-8.2-12.5-14.4-28.1-16.1-40.5-1.1-7.7-.7-24.2.6-32 6-34 31.6-63.8 64.6-74.9 14.2-4.8 25.4-5.9 43.5-4.2z"/></svg>